<?xml version="1.0" encoding="UTF-8"?>
<svg xmlns="http://www.w3.org/2000/svg" xmlns:xlink="http://www.w3.org/1999/xlink" viewBox="0 0 732.72 271.78">
  <defs>
    <style>
      .cls-1 {
        fill: #99f;
      }

      .cls-2 {
        fill: url(#grad1);
      }

      .cls-3 {
        fill: url(#grad2);
      }
    </style>
    <linearGradient id="grad1" data-name="grad1" x1="22.64" y1="135.89" x2="113.93" y2="135.89" gradientUnits="userSpaceOnUse">
      <stop offset="0" stop-color="#86f48f"/>
      <stop offset="1" stop-color="#99f"/>
    </linearGradient>
    <linearGradient id="grad2" data-name="grad2" x1="618.53" y1="135.89" x2="710.08" y2="135.89" gradientUnits="userSpaceOnUse">
      <stop offset="0" stop-color="#99f"/>
      <stop offset="1" stop-color="#86f48f"/>
    </linearGradient>
  </defs>
  <g>
    <path class="cls-1" d="m179.11,83.15c0-7.33-.04-14.64-.13-21.93-.09-7.29-.13-14.55-.13-21.8,0-3.49,1.75-5.24,5.24-5.24h20.07c3.49,0,5.24,1.75,5.24,5.24,0,7.25-.02,14.51-.06,21.8-.04,7.29-.06,14.6-.06,21.93,0,1.02.55,1.53,1.66,1.53h20.07c3.49,0,5.24,1.75,5.24,5.24,0,2.64-.02,5.31-.06,7.99-.04,2.68-.06,5.39-.06,8.12,0,3.5-1.75,5.24-5.24,5.24h-19.95c-1.11,0-1.66.51-1.66,1.53,0,13.81.04,27.62.13,41.43.08,13.81.13,27.62.13,41.43,0,3.5-1.75,5.24-5.24,5.24h-20.33c-3.5,0-5.24-1.75-5.24-5.24,0-13.81.06-27.62.19-41.43.13-13.81.19-27.62.19-41.43,0-1.28-.9-1.9-2.69-1.85-1.79.04-3.83.19-6.14.45-2.3.26-4.35.09-6.14-.51-1.79-.6-2.69-2.22-2.69-4.86v-16.11c0-3.49,1.75-5.24,5.24-5.24h10.74c1.11,0,1.66-.51,1.66-1.53Z"/>
    <path class="cls-1" d="m328.77,84.94h14.19c1.96,0,3.49.94,4.6,2.81,1.45,2.39,2.81,4.94,4.09,7.67,1.28,2.73,2.6,5.37,3.96,7.93,3.24,6.22,6.46,12.49,9.65,18.79,3.2,6.31,6.46,12.62,9.78,18.92.51.94.98,1.41,1.41,1.41.51,0,.98-.47,1.41-1.41,3.07-6.22,6.01-12.51,8.82-18.86,2.81-6.35,5.67-12.64,8.57-18.86,1.19-2.47,2.37-5.07,3.52-7.8,1.15-2.73,2.41-5.28,3.77-7.67,1.19-1.96,2.77-2.94,4.73-2.94h18.03c1.19,0,2.45.21,3.77.64,1.32.43,1.98,1.41,1.98,2.94,0,.68-.11,1.34-.32,1.98-.21.64-.45,1.26-.7,1.85-4.43,10.23-8.95,20.42-13.55,30.56-4.6,10.14-9.16,20.33-13.68,30.56-3.15,7.33-6.31,14.7-9.46,22.12-3.15,7.42-6.44,14.79-9.84,22.12-.34.85-.89,1.92-1.66,3.2s-1.75,1.92-2.94,1.92c-1.11,0-2.07-.62-2.88-1.85-.81-1.23-1.43-2.24-1.85-3-5.8-10.65-11.32-21.46-16.56-32.41-5.24-10.95-10.68-21.8-16.3-32.54-.09-.26-.26-.58-.51-.96-.26-.38-.56-.58-.9-.58s-.64.19-.89.58-.47.7-.64.96c-5.2,10.57-10.14,21.31-14.83,32.22-4.69,10.91-9.68,21.65-14.96,32.22-.34.85-.92,1.92-1.73,3.2-.81,1.28-1.81,1.92-3,1.92-1.11,0-2.07-.66-2.88-1.98-.81-1.32-1.43-2.41-1.85-3.26-3.67-7.84-7.18-15.75-10.55-23.72-3.37-7.97-6.8-15.87-10.29-23.72-4.26-9.63-8.57-19.24-12.91-28.83-4.35-9.59-8.65-19.16-12.91-28.7-.25-.59-.49-1.21-.7-1.85-.21-.64-.32-1.3-.32-1.98,0-1.54.66-2.51,1.98-2.94,1.32-.42,2.58-.64,3.77-.64h18.03c1.96,0,3.49.94,4.6,2.81,1.28,2.13,2.49,4.37,3.64,6.71,1.15,2.34,2.28,4.62,3.39,6.84,3.24,6.48,6.48,12.98,9.72,19.5,3.24,6.52,6.56,12.98,9.97,19.37.51.94.98,1.41,1.41,1.41.51,0,.98-.47,1.41-1.41.34-.68,1.23-2.45,2.68-5.31,1.45-2.85,3.11-6.2,4.99-10.04,1.87-3.84,3.73-7.61,5.56-11.32,1.83-3.71,3.37-6.8,4.6-9.27,1.23-2.47,1.85-3.75,1.85-3.84,0-.6-.49-1.64-1.47-3.13-.98-1.49-1.94-3.09-2.88-4.79-.94-1.7-1.41-3.11-1.41-4.22,0-1.45.64-2.37,1.92-2.75,1.28-.38,2.47-.58,3.58-.58Z"/>
    <path class="cls-1" d="m471.59,84.94c3.24,0,4.99,1.58,5.24,4.73l1.28,14.58c0,.09.08.7.26,1.85.17,1.15.47,1.73.89,1.73s.87-.47,1.34-1.41c.47-.94.75-1.49.83-1.66,3.49-6.56,7.76-11.72,12.79-15.47,5.03-3.75,11.38-5.63,19.05-5.63,1.79,0,4.07.15,6.84.45,2.77.3,4.16,1.73,4.16,4.28,0,1.28-.25,3.28-.77,6.01-.51,2.73-1.09,5.48-1.73,8.25-.64,2.77-1.13,4.88-1.47,6.33-.34,1.45-.88,2.58-1.6,3.39-.72.81-1.94,1.21-3.64,1.21-.85,0-1.68-.06-2.49-.19-.81-.13-1.68-.19-2.62-.19-6.74,0-12.4,2.11-17.01,6.33-4.6,4.22-8.05,9.4-10.36,15.54-2.3,6.14-3.45,12.19-3.45,18.16v42.45c0,3.5-1.75,5.24-5.24,5.24h-19.82c-3.5,0-5.24-1.79-5.24-5.37,0-13.21.06-26.4.19-39.57.13-13.17.19-26.32.19-39.44v-26.34c0-3.49,1.75-5.24,5.24-5.24h17.13Z"/>
    <path class="cls-1" d="m540.43,21.78c0-3.49,1.75-5.24,5.24-5.24h20.2c3.49,0,5.24,1.75,5.24,5.24,0,14.49-.04,28.98-.13,43.47-.09,14.49-.13,28.98-.13,43.47s.04,28.98.13,43.47c.08,14.49.13,28.98.13,43.47,0,3.5-1.75,5.24-5.24,5.24h-20.2c-3.5,0-5.24-1.75-5.24-5.24,0-14.49.04-28.98.13-43.47.08-14.49.13-28.98.13-43.47s-.04-28.98-.13-43.47c-.09-14.49-.13-28.98-.13-43.47Z"/>
  </g>
  <path class="cls-2" d="m113.29,98.75c0,1.45-.56,2.73-1.66,3.84-.68.77-2.3,2.34-4.86,4.73-2.56,2.39-5.5,5.14-8.82,8.25-3.32,3.11-6.58,6.18-9.78,9.21-3.2,3.03-5.84,5.58-7.93,7.67-2.09,2.09-3.13,3.26-3.13,3.52s1.06,1.41,3.2,3.45c2.13,2.05,4.79,4.58,7.99,7.61,3.2,3.03,6.48,6.07,9.85,9.14,3.37,3.07,6.33,5.8,8.89,8.18,2.56,2.39,4.18,3.96,4.86,4.73,1.02,1.11,1.58,2.35,1.66,3.71.26,3.5.38,7.08.38,10.74v10.87c0,1.11-.15,2.47-.45,4.09-.3,1.62-1.21,2.43-2.75,2.43-.94,0-1.85-.23-2.75-.7-.9-.47-1.68-.96-2.37-1.47-7.5-5.11-14.9-10.4-22.18-15.85-7.29-5.45-14.6-10.82-21.93-16.11-5.97-4.43-12.02-8.82-18.16-13.17-6.14-4.35-12.1-8.82-17.9-13.42-.6-.51-1.21-1.11-1.85-1.79-.64-.68-.96-1.49-.96-2.43s.32-1.75.96-2.43c.64-.68,1.26-1.28,1.85-1.79,5.8-4.6,11.74-9.06,17.84-13.36,6.09-4.3,12.12-8.67,18.09-13.11,7.24-5.37,14.47-10.78,21.67-16.24,7.2-5.45,14.51-10.74,21.93-15.85.68-.51,1.47-1.02,2.37-1.53.9-.51,1.81-.77,2.75-.77,1.62,0,2.56.83,2.81,2.49.26,1.66.38,3.05.38,4.16v21.22Z"/>
  <path class="cls-3" d="m618.53,194.39v-10.87c0-3.66.13-7.24.38-10.74.08-1.53.64-2.81,1.66-3.84.77-.77,2.43-2.34,4.99-4.73,2.56-2.39,5.52-5.11,8.89-8.18,3.37-3.07,6.65-6.12,9.84-9.14,3.2-3.03,5.86-5.58,7.99-7.67,2.13-2.09,3.2-3.26,3.2-3.52s-1.07-1.45-3.2-3.58c-2.13-2.13-4.82-4.73-8.05-7.8-3.24-3.07-6.52-6.18-9.85-9.33-3.32-3.15-6.25-5.9-8.76-8.25-2.52-2.34-4.11-3.81-4.79-4.41-1.11-1.02-1.66-2.3-1.66-3.84v-20.97c0-1.11.13-2.49.38-4.16s1.19-2.49,2.81-2.49c.94,0,1.85.26,2.75.77.89.51,1.68,1.02,2.37,1.53,8.27,5.8,16.45,11.7,24.55,17.71,8.1,6.01,16.19,12,24.29,17.96,5.11,3.75,10.29,7.48,15.53,11.19s10.33,7.52,15.28,11.44c.68.51,1.34,1.11,1.98,1.79.64.68.96,1.49.96,2.43s-.32,1.75-.96,2.43c-.64.68-1.3,1.28-1.98,1.79-6.22,4.94-12.64,9.74-19.24,14.38-6.61,4.65-13.15,9.36-19.63,14.13-6.82,5.03-13.66,10.14-20.52,15.34-6.86,5.2-13.83,10.19-20.9,14.96-.68.51-1.47,1-2.37,1.47-.9.47-1.81.7-2.75.7-1.53,0-2.45-.81-2.75-2.43-.3-1.62-.45-2.98-.45-4.09Z"/>
</svg>
