<svg viewBox="-25 -25 50 50" fill="none" xmlns="http://www.w3.org/2000/svg">
  <style>
    :root {
      --clr-one: hsl(235, 73%, 73%);
      --clr-two: hsl(125, 83%, 74%);
    }
  </style>
  <defs>
    <linearGradient gradientUnits="userSpaceOnUse" id="linGrad" x1="3.20377" y1="3.20377" x2="9.61132" y2="-3.20377">
      <stop offset="0%" stop-color="var(--clr-two)" />
      <stop offset="100%" stop-color="var(--clr-one)" />
    </linearGradient>
    <radialGradient cx="-7" cy="0" r="27.18492" gradientUnits="userSpaceOnUse" id="radGrad">
      <stop offset="30%" stop-color="black" />
      <stop offset="60%" stop-color="var(--clr-one)" />
    </radialGradient>
    <radialGradient cx="2" cy="3" r="30" gradientUnits="userSpaceOnUse" id="shadow">
      <stop offset="40%" stop-color="black" />
      <stop offset="75%" stop-color="transparent" />
    </radialGradient>
    <path id="half" d="
           M 3.20377 3.20377
           L 9.61132 -3.20377
           L 3.20377 -9.61132
           A 13.59246 13.59246 0 0 0 -20 0
           A 20 20 0 0 1 20 0
           A 13.59246 13.59246 0 0 1 -3.20377 9.61132
           L -9.61132 3.20377
           L -3.20377 -3.20377
           " stroke="none" stroke-width="0.1" stroke-linecap="round" stroke-linejoin="round" />
    <path id="halftail" d="
           M 9.61132 -3.20377
           L 3.20377 -9.61132
           A 13.59246 13.59246 0 0 0 -20 0
           A 20 20 0 0 1 20 0
           " stroke="none" stroke-width="0.1" stroke-linecap="round" stroke-linejoin="round" />
  </defs>
  <g id="foo">
    <use href="#half" fill="url(#linGrad)" />
    <use href="#halftail" fill="url(#radGrad)" />
  </g>
  <use href="#foo" transform="rotate(180)" />
  <path d="
           M 3.20377 3.20377
           L-3.20377 -3.20377
           " stroke="var(--clr-two)" stroke-width="0.5" />
</svg>
